name Walk9.mot
datacolumns 19
datarows 10
range 3.66400000 3.67300000
endheader

                time	   L_ground_force_vx	   L_ground_force_vy	   L_ground_force_vz	   L_ground_force_px	   L_ground_force_py	   L_ground_force_pz	   R_ground_force_vx	   R_ground_force_vy	   R_ground_force_vz	   R_ground_force_px	   R_ground_force_py	   R_ground_force_pz	   L_ground_torque_x	   L_ground_torque_y	   L_ground_torque_z	   R_ground_torque_x	   R_ground_torque_y	   R_ground_torque_z	
          3.66400000	          0.00000000	          0.00000000	          0.00000000	          0.00000000	          0.00000000	          0.00000000	         -3.95799878	         32.27801397	         -3.50426268	          0.44961743	          0.00000000	          0.13992225	          0.00000000	          0.00000000	          0.00000000	          0.00000000	          0.31327556	          0.00000000	
          3.66500000	          0.00000000	          0.00000000	          0.00000000	          0.00000000	          0.00000000	          0.00000000	         -4.54856509	         30.69589458	         -3.72470775	          0.45260337	          0.00000000	          0.13813592	          0.00000000	          0.00000000	          0.00000000	          0.00000000	          0.39150524	          0.00000000	
          3.66600000	          0.00000000	          0.00000000	          0.00000000	          0.00000000	          0.00000000	          0.00000000	         -5.04756812	         29.12092136	         -3.87889137	          0.45606553	          0.00000000	          0.13539061	          0.00000000	          0.00000000	          0.00000000	          0.00000000	          0.45666067	          0.00000000	
          3.66700000	          0.00000000	          0.00000000	          0.00000000	          0.00000000	          0.00000000	          0.00000000	         -5.38205722	         27.30542669	         -3.92070741	          0.46005061	          0.00000000	          0.13253665	          0.00000000	          0.00000000	          0.00000000	          0.00000000	          0.50797598	          0.00000000	
          3.66800000	          0.00000000	          0.00000000	          0.00000000	          0.00000000	          0.00000000	          0.00000000	         -5.45615124	         24.97693243	         -3.80304243	          0.46433381	          0.00000000	          0.13032559	          0.00000000	          0.00000000	          0.00000000	          0.00000000	          0.54017539	          0.00000000	
          3.66900000	          0.00000000	          0.00000000	          0.00000000	          0.00000000	          0.00000000	          0.00000000	         -5.17408654	         21.88955134	         -3.48598160	          0.46862847	          0.00000000	          0.12909171	          0.00000000	          0.00000000	          0.00000000	          0.00000000	          0.53920112	          0.00000000	
          3.67000000	          0.00000000	          0.00000000	          0.00000000	          0.00000000	          0.00000000	          0.00000000	         -4.48038489	         17.89292927	         -2.94828301	          0.47264644	          0.00000000	          0.12878598	          0.00000000	          0.00000000	          0.00000000	          0.00000000	          0.48956562	          0.00000000	
          3.67100000	          0.00000000	          0.00000000	          0.00000000	          0.00000000	          0.00000000	          0.00000000	         -3.42637510	         13.11963175	         -2.22003126	          0.47621212	          0.00000000	          0.12910941	          0.00000000	          0.00000000	          0.00000000	          0.00000000	          0.38970871	          0.00000000	
          3.67200000	          0.00000000	          0.00000000	          0.00000000	          0.00000000	          0.00000000	          0.00000000	          0.00000000	          0.00000000	          0.00000000	          0.00000000	          0.00000000	          0.00000000	          0.00000000	          0.00000000	          0.00000000	          0.00000000	          0.00000000	          0.00000000	
          3.67300000	          0.00000000	          0.00000000	          0.00000000	          0.00000000	          0.00000000	          0.00000000	          0.00000000	          0.00000000	          0.00000000	          0.00000000	          0.00000000	          0.00000000	          0.00000000	          0.00000000	          0.00000000	          0.00000000	          0.00000000	          0.00000000	
